<svg xmlns="http://www.w3.org/2000/svg" width="120" height="120" viewBox="0 0 120 120">
  <g id="Group_21" data-name="Group 21" transform="translate(-900 -288)">
    <circle id="Ellipse_7" data-name="Ellipse 7" cx="60" cy="60" r="60" transform="translate(900 288)" fill="#ffb200"/>
    <g id="Group_19" data-name="Group 19" transform="translate(910 298)">
      <path id="Path_7" data-name="Path 7" d="M0,0H100V100H0Z" fill="none"/>
      <g id="Group_2" data-name="Group 2" transform="translate(8.447 8.65)">
        <path id="Path_8" data-name="Path 8" d="M16.777,54.507C37.653,48.686,53.251,32.289,59.061,15.7a40.244,40.244,0,0,0-10.893-4.665C41.9,29.823,26.274,44.316,5.583,47.673a41.022,41.022,0,0,0,11.194,6.835Z" transform="translate(9.539 25.575)" fill="#fff"/>
        <path id="Path_9" data-name="Path 9" d="M9.737,12.387a48.612,48.612,0,0,0,9.364,15.8A48.528,48.528,0,0,0,29.591,11.083a48.54,48.54,0,0,0-19.854,1.3Z" transform="translate(22.254 24.794)" fill="#fff"/>
        <path id="Path_10" data-name="Path 10" d="M29.143,57.77A54.6,54.6,0,0,1,18.42,2.758a42.242,42.242,0,0,0-12.053,7.32,64.675,64.675,0,0,0,13.615,53.5A41.353,41.353,0,0,0,29.143,57.77Z" transform="translate(7.955 0.235)" fill="#fff"/>
        <path id="Path_11" data-name="Path 11" d="M63.718,29.474a42.162,42.162,0,0,0-1.342-10.389A64.034,64.034,0,0,0,9.056,8.5l-.008.127A49.427,49.427,0,0,0,10.2,19.08,54.79,54.79,0,0,1,63.549,32.8c.089-1.1.169-2.2.169-3.322Z" transform="translate(19.383 12.3)" fill="#fff"/>
        <path id="Path_12" data-name="Path 12" d="M31.759,16.448a68.934,68.934,0,0,1,48.2,7.169,41.352,41.352,0,0,0-44.1-20.828,48.158,48.158,0,0,0-4.1,13.66ZM76.129,47.483c-5.891,15.048-19.239,29.759-36.97,37.43A41.492,41.492,0,0,0,83.565,54.564a48.165,48.165,0,0,0-7.436-7.081ZM23.92,67.305A69.7,69.7,0,0,1,9.026,20.479a41.52,41.52,0,0,0,2.277,49.3A47.7,47.7,0,0,0,23.92,67.305Z" transform="translate(-2.001 -2.049)" fill="#fff"/>
      </g>
    </g>
  </g>
</svg>
