<svg xmlns="http://www.w3.org/2000/svg" width="120" height="120" viewBox="0 0 120 120">
  <g id="Group_20" data-name="Group 20" transform="translate(-1452 -288)">
    <circle id="Ellipse_8" data-name="Ellipse 8" cx="60" cy="60" r="60" transform="translate(1452 288)" fill="#ffb200"/>
    <path id="_988a79f469ed0c3f39690983067cab0f" data-name="988a79f469ed0c3f39690983067cab0f" d="M19.168,1.058a1.393,1.393,0,0,0-1.4,1.387V6.63H2.471q-.067,0-.133,0A1.393,1.393,0,0,0,1.084,7.947,39.066,39.066,0,0,0,2.893,20.994,21.246,21.246,0,0,0,8.6,30.206a17.258,17.258,0,0,0,11.425,4.255A22.288,22.288,0,0,0,33.082,45.892a14.838,14.838,0,0,1-1.9,5.506,28.985,28.985,0,0,1-1.986,3.148,1.393,1.393,0,0,0-.277.832v6.959H19.168a1.393,1.393,0,0,0-1.4,1.4V77.671a1.393,1.393,0,0,0,1.4,1.387H60.952a1.393,1.393,0,0,0,1.387-1.387V63.739a1.393,1.393,0,0,0-1.387-1.4H51.205V55.379a1.393,1.393,0,0,0-.277-.832A29.243,29.243,0,0,1,48.944,51.4a14.844,14.844,0,0,1-1.907-5.506A22.274,22.274,0,0,0,60.089,34.461a17.264,17.264,0,0,0,11.434-4.255,21.24,21.24,0,0,0,5.7-9.212A39.075,39.075,0,0,0,79.036,7.947a1.393,1.393,0,0,0-1.4-1.317h-15.3V2.446a1.393,1.393,0,0,0-1.388-1.387Zm1.387,2.786h39c-.068,6.965,0,13.866,0,20.894a19.5,19.5,0,0,1-39,0c.016-6.975,0-13.954,0-20.894ZM4.054,9.416H17.77V24.738a22.28,22.28,0,0,0,1.094,6.886,13.838,13.838,0,0,1-8.4-3.482,18.563,18.563,0,0,1-4.924-8.02A29.442,29.442,0,0,1,4.054,9.416Zm58.285,0H76.066a29.411,29.411,0,0,1-1.48,10.705,18.562,18.562,0,0,1-4.924,8.02,13.84,13.84,0,0,1-8.414,3.482,22.3,22.3,0,0,0,1.091-6.886Zm-22.306.778a1.393,1.393,0,0,0-1.27.966l-2.116,6.584-6.915-.065A1.393,1.393,0,0,0,28.9,20.2l5.615,4.054-2.2,6.548a1.393,1.393,0,0,0,2.144,1.564l5.585-4.075L45.588,32.4a1.393,1.393,0,0,0,2.149-1.559l-2.16-6.565,5.636-4.007a1.393,1.393,0,0,0-.811-2.525l-6.918.016-2.07-6.595a1.385,1.385,0,0,0-1.382-.977Zm15.492,4.682a1.393,1.393,0,0,0-1.368,1.409v2.068a1.393,1.393,0,0,0,2.786,0V16.285a1.393,1.393,0,0,0-1.417-1.409ZM40.074,16.184l1.066,3.4a1.393,1.393,0,0,0,1.33.974l3.553-.008L43.131,22.6a1.393,1.393,0,0,0-.514,1.575l1.11,3.376-2.856-2.117a1.393,1.393,0,0,0-1.654-.008l-2.873,2.108,1.129-3.379a1.393,1.393,0,0,0-.506-1.572l-2.881-2.078,3.555.033a1.393,1.393,0,0,0,1.344-.96Zm15.451,6.959a1.393,1.393,0,0,0-1.368,1.409,14.039,14.039,0,0,1-14.1,14.106,1.393,1.393,0,1,0,0,2.786A16.88,16.88,0,0,0,56.942,24.553a1.393,1.393,0,0,0-1.417-1.409ZM35.833,46.608a21.97,21.97,0,0,0,8.457,0A17.206,17.206,0,0,0,46.5,52.735c.247.453.494.87.729,1.257H32.9c.235-.387.479-.8.726-1.257A17.209,17.209,0,0,0,35.833,46.608ZM31.7,56.778H48.419v5.561H31.7ZM20.555,65.127h39V76.273h-39Z" transform="translate(1472.44 311.942)" fill="#fff"/>
  </g>
</svg>
