<svg xmlns="http://www.w3.org/2000/svg" width="70" height="70" viewBox="0 0 70 70">
  <g id="Group_23" data-name="Group 23" transform="translate(-472 -754)">
    <rect id="Rectangle_14" data-name="Rectangle 14" width="70" height="70" rx="23" transform="translate(472 754)" fill="#2c2848"/>
    <g id="instagram" transform="translate(482 763.593)">
      <path id="Path_1" data-name="Path 1" d="M25,0c-6.792,0-7.64.031-10.306.15A18.434,18.434,0,0,0,8.625,1.312,12.243,12.243,0,0,0,4.2,4.2,12.2,12.2,0,0,0,1.312,8.625,18.381,18.381,0,0,0,.15,14.694C.025,17.36,0,18.208,0,25s.031,7.64.15,10.306a18.446,18.446,0,0,0,1.162,6.069A12.26,12.26,0,0,0,4.2,45.8a12.225,12.225,0,0,0,4.429,2.883,18.457,18.457,0,0,0,6.069,1.162C17.36,49.975,18.208,50,25,50s7.64-.031,10.306-.15a18.5,18.5,0,0,0,6.069-1.162,12.777,12.777,0,0,0,7.313-7.313,18.446,18.446,0,0,0,1.162-6.069C49.975,32.64,50,31.792,50,25s-.031-7.64-.15-10.306a18.488,18.488,0,0,0-1.162-6.069A12.271,12.271,0,0,0,45.8,4.2a12.181,12.181,0,0,0-4.429-2.883A18.392,18.392,0,0,0,35.306.15C32.64.025,31.792,0,25,0Zm0,4.5c6.673,0,7.469.033,10.1.148a13.774,13.774,0,0,1,4.64.865,8.227,8.227,0,0,1,4.746,4.744,13.8,13.8,0,0,1,.86,4.64c.119,2.638.146,3.429.146,10.1s-.031,7.469-.154,10.1a14.069,14.069,0,0,1-.877,4.64,7.937,7.937,0,0,1-1.873,2.879,7.8,7.8,0,0,1-2.875,1.867,13.9,13.9,0,0,1-4.656.86c-2.654.119-3.435.146-10.123.146s-7.471-.031-10.123-.154a14.176,14.176,0,0,1-4.658-.877,7.742,7.742,0,0,1-2.873-1.873,7.592,7.592,0,0,1-1.875-2.875,14.188,14.188,0,0,1-.875-4.656c-.094-2.625-.127-3.435-.127-10.092s.033-7.471.127-10.127a14.172,14.172,0,0,1,.875-4.654A7.411,7.411,0,0,1,7.283,7.31,7.394,7.394,0,0,1,10.156,5.44a13.837,13.837,0,0,1,4.627-.877c2.656-.094,3.437-.125,10.123-.125Zm0,7.663A12.838,12.838,0,1,0,37.838,25,12.837,12.837,0,0,0,25,12.163Zm0,21.171A8.333,8.333,0,1,1,33.333,25,8.331,8.331,0,0,1,25,33.333ZM41.346,11.656a3,3,0,1,1-3-3,3,3,0,0,1,3,3Z" fill="#ffb200"/>
    </g>
  </g>
</svg>
